<svg height="512pt" viewBox="0 0 512.04352 512" width="512pt" xmlns="http://www.w3.org/2000/svg"><path d="m68.777344 134.859375c-16.335938-11.199219-38.511719-8.136719-51.199219 7.070313-12.691406 15.210937-11.730469 37.574218 2.21875 51.640624l39.933594 40.019532zm0 0" fill="#4527a0"/><path d="m503.464844 401.101562c-8.859375 17.578126-21.0625 33.257813-35.925782 46.164063-42.582031 37.546875-107.519531 56.234375-181.675781 56.234375-2.132812 0-4.265625 0-6.398437-.171875-80.640625-1.277344-150.699219-29.78125-188.929688-71.679687-8.429687-9.101563-15.472656-19.394532-20.90625-30.546876-.511718-1.023437-.9375-2.050781-1.363281-3.074218-5.585937-12.453125-8.496094-25.941406-8.535156-39.59375v-166.65625c0-98.558594 77.910156-181.675782 176.46875-183.210938 14.292969-.261718 28.566406 1.226563 42.496093 4.4375 81.566407 18.578125 139.433594 91.109375 139.4375 174.761719v139.09375c-.222656 16.597656 3.925782 32.960937 12.03125 47.445313 11.261719 19.371093 35.242188 35.585937 73.300782 26.796874zm0 0" fill="#4527a0"/><path d="m460.796875 446.242188c-42.835937 36.949218-107.347656 55.976562-181.332031 57.085937-80.640625-1.277344-150.699219-29.78125-188.929688-71.679687-8.429687-9.101563-15.472656-19.394532-20.90625-30.546876-.511718-1.023437-.9375-2.050781-1.363281-3.074218v-221.78125c.234375-88.09375 71.816406-159.335938 159.914063-159.144532 10.839843-.027343 21.648437 1.089844 32.253906 3.328126 74.21875 14.929687 127.625 80.113281 127.660156 155.816406v194.476562s0 54.101563 72.703125 75.519532zm0 0" fill="#673ab7"/><path d="m476.074219 193.570312-63.402344 63.402344-17.496094-17.492187-36.777343-36.863281 63.316406-63.320313c11.351562-11.363281 28.578125-14.460937 43.179687-7.765625.085938 0 0 .085938 0 .085938 4.175781 1.835937 7.964844 4.441406 11.179688 7.679687 7.210937 7.191406 11.265625 16.953125 11.265625 27.136719s-4.054688 19.949218-11.265625 27.136718zm0 0" fill="#4527a0"/><path d="m458.066406 176.503906-74.070312 79.53125-25.597656-53.417968 63.316406-63.320313c11.351562-11.363281 28.578125-14.460937 43.179687-7.765625.085938 0 0 .085938 0 .085938 7.863281 14.832031 5.089844 33.0625-6.828125 44.886718zm0 0" fill="#673ab7"/><g fill="#37474f"><path d="m162.132812 187.765625c0 18.851563-15.285156 34.136719-34.136718 34.136719-18.847656 0-34.132813-15.285156-34.132813-34.136719 0-18.847656 15.285157-34.132813 34.132813-34.132813 18.851562 0 34.136718 15.285157 34.136718 34.132813zm0 0"/><path d="m281.597656 187.765625c0 18.851563-15.28125 34.136719-34.132812 34.136719-18.851563 0-34.132813-15.285156-34.132813-34.136719 0-18.847656 15.28125-34.132813 34.132813-34.132813 18.851562 0 34.132812 15.285157 34.132812 34.132813zm0 0"/><path d="m127.996094 290.167969v85.332031c0 9.425781 7.644531 17.066406 17.070312 17.066406h93.863282s59.734374 8.535156 68.269531-51.199218v-102.398438c-8.535157 59.730469-68.269531 51.199219-68.269531 51.199219h-128"/></g><path d="m179.199219 358.433594h51.199219c9.425781 0 17.066406 7.640625 17.066406 17.066406v17.066406h-85.332032v-17.066406c0-9.425781 7.640626-17.066406 17.066407-17.066406zm0 0" fill="#e91e63"/><path d="m136.53125 174.96875c0 7.066406-5.730469 12.796875-12.800781 12.796875-7.070313 0-12.800781-5.730469-12.800781-12.796875 0-7.070312 5.730468-12.800781 12.800781-12.800781 7.070312 0 12.800781 5.730469 12.800781 12.800781zm0 0" fill="#fff"/><path d="m255.996094 174.96875c0 7.066406-5.730469 12.796875-12.796875 12.796875-7.070313 0-12.800781-5.730469-12.800781-12.796875 0-7.070312 5.730468-12.800781 12.800781-12.800781 7.066406 0 12.796875 5.730469 12.796875 12.800781zm0 0" fill="#fff"/><path d="m51.199219 237.125v121.308594c.070312 16.058594 3.738281 31.898437 10.734375 46.351562 30.738281 64.148438 120.730468 107.25 223.929687 107.25 109.101563 0 191.199219-39.042968 225.28125-107.121094 1.476563-2.957031 1.113281-6.5-.933593-9.09375-2.042969-2.59375-5.402344-3.777343-8.625-3.03125-40.402344 9.300782-58.222657-12.800781-64-22.75-7.355469-13.1875-11.121094-28.078124-10.921876-43.179687v-71.816406l55.46875-55.464844c17.59375-17.953125 17.878907-46.589844.644532-64.886719-17.230469-18.296875-45.835938-19.730468-64.808594-3.242187-23.761719-76.574219-93.738281-129.441407-173.890625-131.371094-80.152344-1.933594-152.59375 47.5-180.019531 122.835937-20.65625-8.164062-44.207032-.699218-56.386719 17.875-12.179687 18.574219-9.640625 43.148438 6.082031 58.839844zm185.171875-220.023438c78.710937-1.238281 148.019531 51.613282 167.65625 127.84375l-51.664063 51.664063c-2.214843 2.140625-3.105469 5.3125-2.324219 8.296875s3.109376 5.3125 6.09375 6.09375c2.984376.78125 6.15625-.109375 8.296876-2.324219l63.363281-63.363281c11.664062-11.664062 30.574219-11.664062 42.238281 0s11.664062 30.578125 0 42.242188l-57.933594 57.921874-5.425781 5.421876c-2.035156 2.035156-2.90625 4.960937-2.316406 7.777343.589843 2.820313 2.5625 5.148438 5.242187 6.199219v61.984375c-.210937 18.101563 4.339844 35.941406 13.191406 51.730469 13.238282 22.683594 38.386719 35.675781 64.546876 33.347656-35.199219 52.992188-107.425782 83.03125-201.472657 83.03125-95.265625 0-181.015625-40.109375-208.527343-97.527344-5.894532-12.164062-8.996094-25.492187-9.070313-39.007812v-166.636719c-.011719-18.449219 2.902344-36.78125 8.636719-54.316406 21.804687-70.195313 85.984375-118.640625 159.46875-120.378907zm-210.542969 128.230469c8.730469-8.460937 21.664063-10.902343 32.878906-6.203125-4.941406 17.113282-7.46875 34.835938-7.507812 52.648438v21.179687l-25.371094-25.421875c-11.640625-11.660156-11.640625-30.542968 0-42.203125zm0 0"/><path d="m127.996094 230.433594c23.566406 0 42.667968-19.101563 42.667968-42.667969 0-23.5625-19.101562-42.664063-42.667968-42.664063-23.5625 0-42.664063 19.101563-42.664063 42.664063.027344 23.554687 19.113281 42.640625 42.664063 42.667969zm0-68.265625c14.140625 0 25.601562 11.460937 25.601562 25.597656 0 14.140625-11.460937 25.601563-25.601562 25.601563-14.136719 0-25.597656-11.460938-25.597656-25.601563 0-14.136719 11.460937-25.597656 25.597656-25.597656zm0 0"/><path d="m247.464844 230.433594c23.5625 0 42.667968-19.101563 42.667968-42.667969 0-23.5625-19.105468-42.664063-42.667968-42.664063s-42.667969 19.101563-42.667969 42.664063c.03125 23.554687 19.117187 42.640625 42.667969 42.667969zm0-68.265625c14.136718 0 25.601562 11.460937 25.601562 25.597656 0 14.140625-11.464844 25.601563-25.601562 25.601563-14.136719 0-25.601563-11.460938-25.601563-25.601563 0-14.136719 11.464844-25.597656 25.601563-25.597656zm0 0"/><path d="m240.144531 281.71875c-.402343-.058594-.808593-.085938-1.214843-.085938h-128c-4.710938 0-8.53125 3.820313-8.53125 8.535157 0 4.710937 3.820312 8.53125 8.53125 8.53125h8.535156v76.800781c0 14.140625 11.460937 25.601562 25.601562 25.601562h93.285156c3.054688.390626 6.132813.585938 9.214844.578126 24.824219 0 61.339844-11.945313 68.078125-59.101563.058594-.398437.089844-.804687.085938-1.210937v-102.398438c.011719-4.488281-3.453125-8.214844-7.925781-8.535156-4.453126-.265625-8.375 2.898437-9.054688 7.304687-7.074219 49.5625-53.402344 44.679688-58.605469 43.980469zm-69.480469 102.316406v-8.535156c0-4.710938 3.820313-8.53125 8.535157-8.53125h51.199219c4.710937 0 8.53125 3.820312 8.53125 8.53125v8.535156zm128-43.289062c-1.570312 22.988281-19.699218 41.382812-42.667968 43.289062v-8.535156c0-14.136719-11.460938-25.597656-25.597656-25.597656h-51.199219c-14.140625 0-25.601563 11.460937-25.601563 25.597656v8.535156h-8.53125c-4.714844 0-8.535156-3.820312-8.535156-8.535156v-76.800781h101.871094c11.507812 1.136719 23.125-.097657 34.132812-3.632813 9.960938-3.203125 18.949219-8.875 26.128906-16.488281zm0 0"/></svg>