<svg height="512" viewBox="0 0 64 64" width="512" xmlns="http://www.w3.org/2000/svg"><g id="headphone-microphone-wired-wireless-bluetooth"><path d="m61 37v10a4 4 0 0 1 -4 4h-4v-14z" fill="#fd7777"/><path d="m61 32v5h-4v-5a25 25 0 0 0 -50 0v5h-4v-5a29 29 0 0 1 58 0z" fill="#a78966"/><path d="m53 37v14a4 4 0 0 1 -4 4h-4v-22h4a4 4 0 0 1 4 4z" fill="#fee9ab"/><path d="m45 37v14h-2a1 1 0 0 1 -1-1v-12a1 1 0 0 1 1-1z" fill="#c0ab91"/><path d="m34 57a2.006 2.006 0 0 1 2 2 2.015 2.015 0 0 1 -2 2h-4a2.006 2.006 0 0 1 -2-2 2.015 2.015 0 0 1 2-2z" fill="#898890"/><path d="m36 59a2 2 0 0 1 -.27 1 2 2 0 0 0 -1.73-1h-4a1.955 1.955 0 0 0 -1.41.59 1.813 1.813 0 0 0 -.32.41 2 2 0 0 1 -.27-1 2.015 2.015 0 0 1 2-2h4a2.006 2.006 0 0 1 2 2z" fill="#57565c"/><path d="m22 38v12a1 1 0 0 1 -1 1h-2v-14h2a1 1 0 0 1 1 1z" fill="#c0ab91"/><path d="m19 51v4h-4a4 4 0 0 1 -4-4v-14a4 4 0 0 1 4-4h4z" fill="#fee9ab"/><path d="m11 37v14h-4a4 4 0 0 1 -4-4v-10z" fill="#fd7777"/><path d="m61 37v10a4 4 0 0 1 -4 4h-4a4 4 0 0 0 4-4v-10z" fill="#ff3051"/><path d="m53 37v14a4 4 0 0 1 -4 4h-4a4 4 0 0 0 4-4v-14a4 4 0 0 0 -4-4h4a4 4 0 0 1 4 4z" fill="#ffd422"/><path d="m15 33h4v22h-4z" fill="#ffd422"/><path d="m7 37h4v14h-4z" fill="#ff3051"/><path d="m30 7c.33 0 .67.01 1 .02a24.987 24.987 0 0 0 -24 24.98v5h-2v-5a25 25 0 0 1 25-25z" fill="#806749"/><path d="m61 32v5h-2v-5a28.981 28.981 0 0 0 -28-28.97c.33-.02.66-.03 1-.03a29 29 0 0 1 29 29z" fill="#806749"/><path d="m32 2a30.037 30.037 0 0 0 -30 30v15a5 5 0 0 0 5 5v3a5 5 0 0 0 5 5h15.18a3.01 3.01 0 0 0 2.82 2h4a3 3 0 0 0 0-6h-4a3.01 3.01 0 0 0 -2.82 2h-15.18a3.009 3.009 0 0 1 -3-3v-3h1.1a5.017 5.017 0 0 0 4.9 4h4a1 1 0 0 0 1-1v-3h1a2.006 2.006 0 0 0 2-2v-12a2.006 2.006 0 0 0 -2-2h-1v-3a1 1 0 0 0 -1-1h-4a5.017 5.017 0 0 0 -4.9 4h-2.1v-4a24 24 0 0 1 48 0v4h-2.1a5.017 5.017 0 0 0 -4.9-4h-4a1 1 0 0 0 -1 1v3h-1a2.006 2.006 0 0 0 -2 2v12a2.006 2.006 0 0 0 2 2h1v3a1 1 0 0 0 1 1h4a5.017 5.017 0 0 0 4.9-4h3.1a5 5 0 0 0 5-5v-15a30.037 30.037 0 0 0 -30-30zm-2 56h4a1 1 0 0 1 0 2h-4a1 1 0 0 1 0-2zm-10-20h1v12h-1zm-8-1a3.009 3.009 0 0 1 3-3h3v20h-3a3.009 3.009 0 0 1 -3-3zm32 13h-1v-12h1zm8 1a3.009 3.009 0 0 1 -3 3h-3v-20h3a3.009 3.009 0 0 1 3 3zm-42-13v12h-3a3.009 3.009 0 0 1 -3-3v-9zm50 9a3.009 3.009 0 0 1 -3 3h-3v-12h6zm0-11h-2v-4a26 26 0 0 0 -52 0v4h-2v-4a28 28 0 0 1 56 0z"/><path d="m6 41h2v2h-2z"/><path d="m6 45h2v2h-2z"/><path d="m56 41h2v2h-2z"/><path d="m56 45h2v2h-2z"/></g></svg>