<svg id="Layer_1" enable-background="new 0 0 511.099 511.099" height="512" viewBox="0 0 511.099 511.099" width="512" xmlns="http://www.w3.org/2000/svg"><g><path d="m74.282 419.187v91.912h74.397c-33.408-22.056-59.647-54.13-74.397-91.912z"/><path d="m450.05 250.832v111.227c0 12.995 10.573 23.568 23.569 23.568 12.995 0 23.568-10.573 23.568-23.568v-111.227c0-12.995-10.573-23.568-23.568-23.568-12.996 0-23.569 10.573-23.569 23.568z"/><path d="m255.55 89.453c-76.099 0-140.131 52.608-157.667 123.362h183.381l29.903-44.009c2.986-4.394 7.954-7.024 13.265-7.024h.054c5.331.018 10.305 2.684 13.271 7.114l29.407 43.919h46.054c-17.537-70.754-81.569-123.362-157.668-123.362z"/><path d="m255.55 511.094c89.563 0 162.427-72.864 162.427-162.427v-96.787c0-2.343-.061-4.672-.16-6.992h-59.216c-5.351 0-10.349-2.669-13.325-7.114l-20.942-31.278-21.313 31.367c-2.986 4.394-7.953 7.024-13.265 7.024h-196.473c-.099 2.32-.16 4.649-.16 6.992v96.787c0 15.487 2.181 30.473 6.248 44.671h76.059v-5.803c0-15.917 12.949-28.866 28.866-28.866h102.508c15.917 0 28.866 12.949 28.866 28.866v43.68c0 15.917-12.949 28.866-28.866 28.866h-102.508c-15.917 0-28.866-12.949-28.866-28.866v-5.804h-63c27.437 50.962 81.297 85.683 143.118 85.683h.002z"/><path d="m207.503 390.742h96.093v37.265h-96.093z"/><path d="m37.48 195.19c5.694 0 11.186.87 16.361 2.47 2.717-44.226 23.064-84.744 58.005-114.987 37.699-32.63 88.734-50.6 143.704-50.6 54.969 0 106.004 17.97 143.703 50.6 34.942 30.243 55.289 70.762 58.006 114.987 9.249-2.849 21.041-3.495 32.124-.182-2.783-53.598-27.082-102.654-69.139-139.056-43.528-37.674-102.018-58.422-164.695-58.422s-121.166 20.748-164.693 58.422c-42.058 36.402-66.357 85.458-69.139 139.056 5.001-1.48 10.288-2.288 15.763-2.288z"/><path d="m437.308 511.099v-93.207c-14.654 38.346-41.106 70.901-74.9 93.207z"/><path d="m13.911 250.832v111.227c0 12.995 10.573 23.568 23.569 23.568s23.569-10.573 23.569-23.568v-111.227c0-12.995-10.573-23.568-23.569-23.568s-23.569 10.573-23.569 23.568z"/></g></svg>